<?xml version="1.0" encoding="utf-8"?>
<svg xmlns="http://www.w3.org/2000/svg"
	xmlns:xlink="http://www.w3.org/1999/xlink"
	width="81px" height="30px" viewBox="0 0 81 30">
<style type="text/css"><![CDATA[
.style0 {
  font-size: 22px;
  font-family: "VNI-ArialRounded";
  fill: rgb(67,79,116);
}
.style1 {
  font-size: 22px;
  font-family: "VNI-ArialRounded";
  fill: rgb(255,255,255);
}
]]></style>
<g><path fillRule="evenodd" d="M 30.6 8.25C 30.6 8.25 32.57 0.34 40.97-0 40.97-0 63.62-0 63.62-0 63.62-0 75.44 0.24 78.67 12.23 78.67 12.23 79.88 18.39 79.88 18.39 79.88 18.39 82.4 28 70.99 29.25 70.99 29.25 44.62 30 44.62 30 44.62 30 32.45 27.51 31.67 18.39 31.67 18.39 30.6 8.25 30.6 8.25Z" fill="rgb(249,34,117)"/><text transform="matrix(0.69,0.00,0.00,0.70,36.82,20.76)"><tspan x="-45.11 -34.66 -22.36 -10.02" fill="rgb(67,78,115)" class="style0">You  </tspan><tspan x="-1.15 9.01 21.35 34.09" fill="rgb(255,255,255)" class="style1">Tube</tspan></text></g></svg>