<?xml version="1.0" encoding="utf-8"?>
<svg xmlns="http://www.w3.org/2000/svg"
	xmlns:xlink="http://www.w3.org/1999/xlink"
	width="20px" height="20px" viewBox="0 0 20 20">
<path fillRule="evenodd" d="M 19.98 7.31C 19.98 7.35 19.98 7.37 19.98 7.38 19.98 11.08 16.98 14.1 13.28 14.1 12.89 14.1 12.58 13.79 12.58 13.39 12.58 12.99 12.89 12.68 13.28 12.68 16.17 12.68 18.52 10.36 18.57 7.49 18.57 7.44 18.57 7.4 18.57 7.35 18.57 7.35 18.57 7.23 18.57 7.23 18.59 7.16 18.59 7.09 18.59 7.02 18.59 3.91 16.07 1.38 12.96 1.38 9.91 1.38 7.46 3.77 7.34 6.8 7.32 7.07 7.16 7.31 6.92 7.42 6.68 7.52 6.41 7.49 6.2 7.33 5.64 6.9 4.97 6.68 4.24 6.71 2.68 6.78 1.41 8.19 1.41 9.83 1.41 11.41 2.7 12.68 4.26 12.68 4.66 12.68 4.97 12.99 4.97 13.39 4.97 13.79 4.66 14.1 4.26 14.1 1.91 14.1-0 12.19-0 9.83-0 7.42 1.84 5.42 4.18 5.34 4.83 5.3 5.46 5.42 6.07 5.66 6.7 2.41 9.55-0 12.96-0 16.84-0 20 3.15 20 7.02 20 7.13 19.98 7.21 19.98 7.31ZM 8.57 11.88C 8.85 11.6 9.3 11.6 9.57 11.88 9.57 11.88 14.11 16.42 14.11 16.42 14.38 16.7 14.38 17.14 14.11 17.42 13.97 17.56 13.78 17.62 13.61 17.62 13.42 17.62 13.25 17.56 13.11 17.42 13.11 17.42 9.78 14.08 9.78 14.08 9.78 14.08 9.78 19.29 9.78 19.29 9.78 19.69 9.47 20 9.07 20 8.68 20 8.37 19.69 8.37 19.29 8.37 19.29 8.37 14.08 8.37 14.08 8.37 14.08 5.02 17.44 5.02 17.44 4.74 17.71 4.3 17.71 4.02 17.44 3.75 17.16 3.75 16.71 4.02 16.44 4.02 16.44 8.57 11.88 8.57 11.88Z" fill="rgb(149,159,187)"/></svg>