<svg xmlns="http://www.w3.org/2000/svg" xmlns:xlink="http://www.w3.org/1999/xlink" width="480pt" height="480pt" viewBox="0 -24 480 480">
    <linearGradient id="a">
        <stop offset="0" stop-color="#fa2276"/>
        <stop offset="1" stop-color="#00e7f0"/>
    </linearGradient>
    <linearGradient id="b" x1="240" x2="240" y1="432.448" y2="-101.96" gradientUnits="userSpaceOnUse" xlink:href="#a"/>
    <linearGradient id="c" x1="232" x2="232" y1="432.448" y2="-101.96" gradientUnits="userSpaceOnUse" xlink:href="#a"/>
    <path fill="url(#b)" d="m456 0h-432c-13.253906 0-24 10.746094-24 24v272c0 13.253906 10.746094 24 24 24h176v64h-40c-4.417969 0-8 3.582031-8 8v32c0 4.417969 3.582031 8 8 8h160c4.417969 0 8-3.582031 8-8v-32c0-4.417969-3.582031-8-8-8h-40v-64h176c13.253906 0 24-10.746094 24-24v-272c0-13.253906-10.746094-24-24-24zm-144 416h-144v-16h144zm-48-32h-48v-64h48zm200-88c0 4.417969-3.582031 8-8 8h-432c-4.417969 0-8-3.582031-8-8v-272c0-4.417969 3.582031-8 8-8h432c4.417969 0 8 3.582031 8 8zm0 0"/>
    <path fill="url(#b)" d="m448 24h-416c-4.417969 0-8 3.582031-8 8v256c0 4.417969 3.582031 8 8 8h416c4.417969 0 8-3.582031 8-8v-256c0-4.417969-3.582031-8-8-8zm-8 256h-400v-240h400zm0 0"/>
</svg>
