<?xml version="1.0" encoding="utf-8"?>
<svg xmlns="http://www.w3.org/2000/svg"
	xmlns:xlink="http://www.w3.org/1999/xlink"
	width="18px" height="18px" viewBox="0 0 18 18">
<path fillRule="evenodd" d="M 17.41 18C 17.41 18 10.37 18 10.37 18 10.05 18 9.78 17.74 9.78 17.41 9.78 17.41 9.78 10.37 9.78 10.37 9.78 10.05 10.05 9.78 10.37 9.78 10.37 9.78 17.41 9.78 17.41 9.78 17.74 9.78 18 10.05 18 10.37 18 10.37 18 17.41 18 17.41 18 17.74 17.74 18 17.41 18ZM 16.83 10.96C 16.83 10.96 10.96 10.96 10.96 10.96 10.96 10.96 10.96 16.83 10.96 16.83 10.96 16.83 16.83 16.83 16.83 16.83 16.83 16.83 16.83 10.96 16.83 10.96ZM 17.41 8.22C 17.41 8.22 10.37 8.22 10.37 8.22 10.05 8.22 9.78 7.95 9.78 7.63 9.78 7.63 9.78 0.59 9.78 0.59 9.78 0.26 10.05-0 10.37-0 10.37-0 17.41-0 17.41-0 17.74-0 18 0.26 18 0.59 18 0.59 18 7.63 18 7.63 18 7.95 17.74 8.22 17.41 8.22ZM 16.83 1.17C 16.83 1.17 10.96 1.17 10.96 1.17 10.96 1.17 10.96 7.04 10.96 7.04 10.96 7.04 16.83 7.04 16.83 7.04 16.83 7.04 16.83 1.17 16.83 1.17ZM 7.63 18C 7.63 18 0.59 18 0.59 18 0.26 18 0 17.74 0 17.41 0 17.41 0 10.37 0 10.37 0 10.05 0.26 9.78 0.59 9.78 0.59 9.78 7.63 9.78 7.63 9.78 7.95 9.78 8.22 10.05 8.22 10.37 8.22 10.37 8.22 17.41 8.22 17.41 8.22 17.74 7.95 18 7.63 18ZM 7.04 10.96C 7.04 10.96 1.17 10.96 1.17 10.96 1.17 10.96 1.17 16.83 1.17 16.83 1.17 16.83 7.04 16.83 7.04 16.83 7.04 16.83 7.04 10.96 7.04 10.96ZM 7.63 8.22C 7.63 8.22 0.59 8.22 0.59 8.22 0.26 8.22 0 7.95 0 7.63 0 7.63 0 0.59 0 0.59 0 0.26 0.26-0 0.59-0 0.59-0 7.63-0 7.63-0 7.95-0 8.22 0.26 8.22 0.59 8.22 0.59 8.22 7.63 8.22 7.63 8.22 7.95 7.95 8.22 7.63 8.22ZM 7.04 1.17C 7.04 1.17 1.17 1.17 1.17 1.17 1.17 1.17 1.17 7.04 1.17 7.04 1.17 7.04 7.04 7.04 7.04 7.04 7.04 7.04 7.04 1.17 7.04 1.17Z" fill="rgb(149,159,187)"/></svg>