<?xml version="1.0" encoding="utf-8"?>
<svg xmlns="http://www.w3.org/2000/svg"
	xmlns:xlink="http://www.w3.org/1999/xlink"
	width="18px" height="18px" viewBox="0 0 18 18">
<path fillRule="evenodd" d="M 9 18C 4.03 18 0 13.96 0 9 0 4.03 4.04-0 9-0 13.96-0 18 4.03 18 9 18 13.96 13.97 18 9 18ZM 9 1.26C 4.73 1.26 1.26 4.73 1.26 9 1.26 13.26 4.73 16.74 9 16.74 13.27 16.74 16.74 13.27 16.74 9 16.74 4.73 13.27 1.26 9 1.26ZM 11.58 10.06C 11.58 10.06 8.58 10.06 8.58 10.06 8.22 10.06 7.94 9.78 7.94 9.42 7.94 9.42 7.94 5.08 7.94 5.08 7.94 4.73 8.22 4.45 8.58 4.45 8.94 4.45 9.22 4.73 9.22 5.08 9.22 5.08 9.22 8.78 9.22 8.78 9.22 8.78 11.58 8.78 11.58 8.78 11.94 8.78 12.22 9.06 12.22 9.42 12.22 9.78 11.94 10.06 11.58 10.06Z" fill="rgb(157,167,191)"/></svg>