<?xml version="1.0" encoding="utf-8"?>
<svg xmlns="http://www.w3.org/2000/svg"
	xmlns:xlink="http://www.w3.org/1999/xlink"
	width="20px" height="18px" viewBox="0 0 20 18">
<path fillRule="evenodd" d="M 19.9 7.84C 19.8 7.98 19.64 8.06 19.48 8.06 19.37 8.06 19.26 8.02 19.17 7.96 19.17 7.96 10 1.17 10 1.17 10 1.17 0.83 7.96 0.83 7.96 0.59 8.13 0.27 8.08 0.1 7.84-0.07 7.61-0.02 7.28 0.21 7.11 0.21 7.11 9.69 0.1 9.69 0.1 9.88-0.03 10.12-0.03 10.31 0.1 10.31 0.1 19.79 7.11 19.79 7.11 20.02 7.28 20.07 7.61 19.9 7.84ZM 2.72 8.07C 3.01 8.07 3.24 8.31 3.24 8.6 3.24 8.6 3.24 16.95 3.24 16.95 3.24 16.95 7.4 16.95 7.4 16.95 7.4 16.95 7.4 12.39 7.4 12.39 7.4 10.95 8.57 9.77 10 9.77 11.43 9.77 12.6 10.95 12.6 12.39 12.6 12.39 12.6 16.95 12.6 16.95 12.6 16.95 16.75 16.95 16.75 16.95 16.75 16.95 16.75 8.6 16.75 8.6 16.75 8.31 16.99 8.07 17.27 8.07 17.56 8.07 17.79 8.31 17.79 8.6 17.79 8.6 17.79 17.48 17.79 17.48 17.79 17.77 17.56 18 17.27 18 17.27 18 12.08 18 12.08 18 11.8 18 11.58 17.79 11.56 17.52 11.56 17.5 11.56 17.49 11.56 17.48 11.56 17.48 11.56 12.39 11.56 12.39 11.56 11.52 10.86 10.82 10 10.82 9.14 10.82 8.44 11.52 8.44 12.39 8.44 12.39 8.44 17.48 8.44 17.48 8.44 17.49 8.44 17.5 8.44 17.52 8.42 17.79 8.19 18 7.92 18 7.92 18 2.72 18 2.72 18 2.44 18 2.2 17.77 2.2 17.48 2.2 17.48 2.2 8.6 2.2 8.6 2.2 8.31 2.44 8.07 2.72 8.07Z" fill="rgb(149,159,187)"/></svg>