<?xml version="1.0" encoding="utf-8"?>
<svg xmlns="http://www.w3.org/2000/svg"
	xmlns:xlink="http://www.w3.org/1999/xlink"
	width="20px" height="18px" viewBox="0 0 20 18">
<path fillRule="evenodd" d="M 14.57-0C 12.7-0 11 0.96 10 2.49 9 0.96 7.3-0 5.43-0 2.44-0 0 2.51 0 5.59 0 7.12 0.55 8.53 1.56 9.56 1.56 9.56 9.54 17.8 9.54 17.8 9.79 18.06 10.21 18.06 10.46 17.8 10.46 17.8 18.44 9.57 18.44 9.57 19.45 8.53 20 7.12 20 5.59 20 2.51 17.56-0 14.57-0ZM 17.52 8.62C 17.52 8.62 10 16.37 10 16.37 10 16.37 2.48 8.62 2.48 8.62 2.48 8.62 2.48 8.62 2.48 8.61 1.72 7.83 1.3 6.76 1.3 5.59 1.3 3.25 3.16 1.34 5.43 1.34 7.22 1.34 8.8 2.49 9.38 4.2 9.59 4.8 10.41 4.8 10.62 4.2 11.2 2.49 12.78 1.34 14.57 1.34 16.84 1.34 18.7 3.25 18.7 5.59 18.7 6.76 18.28 7.83 17.52 8.62Z" fill="rgb(151,161,187)"/></svg>