<?xml version="1.0" encoding="utf-8"?>
<svg xmlns="http://www.w3.org/2000/svg"
	xmlns:xlink="http://www.w3.org/1999/xlink"
	width="16px" height="20px" viewBox="0 0 16 20">
<path fillRule="evenodd" d="M 14.15 17.39C 14.15 17.39 11.01 17.39 11.01 17.39 10.73 18.88 9.49 20 8 20 6.51 20 5.27 18.88 4.98 17.39 4.98 17.39 1.85 17.39 1.85 17.39 0.83 17.39-0 16.51-0 15.43-0 14.58 0.51 13.86 1.23 13.59 1.23 13.59 1.23 9.78 1.23 9.78 1.23 6.43 3.41 3.61 6.35 2.83 6.22 2.56 6.15 2.27 6.15 1.96 6.15 0.88 6.98-0 8-0 9.02-0 9.85 0.88 9.85 1.96 9.85 2.27 9.78 2.56 9.65 2.83 12.59 3.61 14.77 6.43 14.77 9.78 14.77 9.78 14.77 13.59 14.77 13.59 15.49 13.86 16 14.58 16 15.43 16 16.51 15.17 17.39 14.15 17.39ZM 8 18.7C 8.8 18.7 9.49 18.15 9.74 17.39 9.74 17.39 6.26 17.39 6.26 17.39 6.51 18.15 7.2 18.7 8 18.7ZM 8 1.3C 7.66 1.3 7.38 1.6 7.38 1.96 7.38 2.32 7.66 2.61 8 2.61 8.34 2.61 8.62 2.32 8.62 1.96 8.62 1.6 8.34 1.3 8 1.3ZM 14.15 14.78C 14.15 14.78 12.92 14.78 12.92 14.78 12.58 14.78 12.31 14.49 12.31 14.13 12.31 13.77 12.58 13.48 12.92 13.48 12.92 13.48 13.54 13.48 13.54 13.48 13.54 13.48 13.54 9.78 13.54 9.78 13.54 6.55 11.05 3.91 8 3.91 4.95 3.91 2.46 6.55 2.46 9.78 2.46 9.78 2.46 13.48 2.46 13.48 2.46 13.48 3.08 13.48 3.08 13.48 3.42 13.48 3.69 13.77 3.69 14.13 3.69 14.49 3.42 14.78 3.08 14.78 3.08 14.78 1.85 14.78 1.85 14.78 1.51 14.78 1.23 15.08 1.23 15.43 1.23 15.79 1.51 16.09 1.85 16.09 1.85 16.09 14.15 16.09 14.15 16.09 14.49 16.09 14.77 15.79 14.77 15.43 14.77 15.08 14.49 14.78 14.15 14.78ZM 8 6.52C 6.3 6.52 4.92 7.98 4.92 9.78 4.92 10.14 4.65 10.43 4.31 10.43 3.97 10.43 3.69 10.14 3.69 9.78 3.69 7.27 5.62 5.22 8 5.22 8.34 5.22 8.62 5.51 8.62 5.87 8.62 6.23 8.34 6.52 8 6.52Z" fill="rgb(149,159,187)"/></svg>