<?xml version="1.0" encoding="utf-8"?>
<svg xmlns="http://www.w3.org/2000/svg"
	xmlns:xlink="http://www.w3.org/1999/xlink"
	width="15px" height="15px" viewBox="0 0 15 15">
<path fillRule="evenodd" d="M 0.13 14.24C 0.13 14.24 3.78 10.59 3.78 10.59 2.8 9.47 2.21 8 2.21 6.4 2.21 2.87 5.08-0 8.6-0 12.13-0 15 2.87 15 6.4 15 9.92 12.13 12.79 8.6 12.79 7 12.79 5.53 12.2 4.41 11.22 4.41 11.22 0.77 14.87 0.77 14.87 0.68 14.95 0.56 15 0.45 15 0.34 15 0.22 14.96 0.13 14.87-0.04 14.69-0.04 14.41 0.13 14.24ZM 14.11 6.4C 14.11 3.36 11.64 0.9 8.61 0.9 5.57 0.9 3.11 3.37 3.11 6.4 3.11 9.43 5.57 11.9 8.61 11.9 11.64 11.9 14.11 9.43 14.11 6.4Z" fill="rgb(149,159,187)"/></svg>