<?xml version="1.0" encoding="utf-8"?>
<svg xmlns="http://www.w3.org/2000/svg"
	xmlns:xlink="http://www.w3.org/1999/xlink"
	width="20px" height="15px" viewBox="0 0 20 15">
<path fillRule="evenodd" d="M 18.04 0C 17.14 0 16.38 0.59 16.15 1.39 16.15 1.39 3.73 4.84 3.73 4.84 3.42 4.2 2.74 3.75 1.96 3.75 0.88 3.75 0 4.59 0 5.62 0 5.62 0 9.37 0 9.37 0 10.41 0.88 11.25 1.96 11.25 2.74 11.25 3.42 10.8 3.73 10.16 3.73 10.16 5.22 10.57 5.22 10.57 5.22 10.57 5.22 11.69 5.22 11.69 5.22 12.53 5.78 13.25 6.61 13.49 6.61 13.49 10.52 14.62 10.52 14.62 10.71 14.67 10.9 14.7 11.09 14.7 11.51 14.7 11.91 14.57 12.25 14.32 12.76 13.97 13.04 13.42 13.04 12.82 13.04 12.82 13.04 12.75 13.04 12.75 13.04 12.75 16.15 13.61 16.15 13.61 16.38 14.41 17.14 15 18.04 15 19.12 15 20 14.16 20 13.12 20 13.12 20 1.87 20 1.87 20 0.84 19.12 0 18.04 0ZM 2.61 9.37C 2.61 9.72 2.32 10 1.96 10 1.6 10 1.3 9.72 1.3 9.37 1.3 9.37 1.3 5.62 1.3 5.62 1.3 5.28 1.6 5 1.96 5 2.32 5 2.61 5.28 2.61 5.62 2.61 5.62 2.61 9.37 2.61 9.37ZM 11.74 12.82C 11.74 13.02 11.64 13.2 11.48 13.32 11.31 13.44 11.1 13.48 10.9 13.42 10.9 13.42 6.99 12.29 6.99 12.29 6.71 12.21 6.52 11.97 6.52 11.69 6.52 11.69 6.52 10.93 6.52 10.93 6.52 10.93 11.74 12.38 11.74 12.38 11.74 12.38 11.74 12.82 11.74 12.82 11.74 12.82 11.74 12.82 11.74 12.82ZM 16.09 12.29C 16.09 12.29 12.59 11.32 12.59 11.32 12.59 11.32 12.58 11.32 12.58 11.32 12.58 11.32 3.91 8.91 3.91 8.91 3.91 8.91 3.91 6.09 3.91 6.09 3.91 6.09 16.09 2.71 16.09 2.71 16.09 2.71 16.09 12.29 16.09 12.29 16.09 12.29 16.09 12.29 16.09 12.29ZM 18.7 13.12C 18.7 13.47 18.4 13.75 18.04 13.75 17.68 13.75 17.39 13.47 17.39 13.12 17.39 13.12 17.39 1.87 17.39 1.87 17.39 1.53 17.68 1.25 18.04 1.25 18.4 1.25 18.7 1.53 18.7 1.87 18.7 1.87 18.7 13.12 18.7 13.12Z" fill="rgb(151,161,187)"/></svg>