<?xml version="1.0" encoding="utf-8"?>
<svg xmlns="http://www.w3.org/2000/svg"
	xmlns:xlink="http://www.w3.org/1999/xlink"
	width="19px" height="19px" viewBox="0 0 19 19">
<path fillRule="evenodd" d="M 15.91 19C 15.91 19 3.09 19 3.09 19 1.39 19 0 17.98 0 16.73 0 15.7 0.95 14.82 2.25 14.55 2.25 14.55 2.25-0 2.25-0 2.25-0 19-0 19-0 19-0 19 16.73 19 16.73 19 17.98 17.61 19 15.91 19ZM 1.69 16.73C 1.69 17.3 2.32 17.76 3.09 17.76 3.09 17.76 13.15 17.76 13.15 17.76 12.94 17.45 12.81 17.1 12.81 16.73 12.81 16.36 12.94 16.01 13.15 15.7 13.15 15.7 3.09 15.7 3.09 15.7 2.32 15.7 1.69 16.17 1.69 16.73ZM 17.31 1.24C 17.31 1.24 3.94 1.24 3.94 1.24 3.94 1.24 3.94 14.46 3.94 14.46 3.94 14.46 15.91 14.46 15.91 14.46 15.91 14.46 15.91 15.7 15.91 15.7 15.13 15.7 14.5 16.17 14.5 16.73 14.5 17.3 15.13 17.76 15.91 17.76 16.68 17.76 17.31 17.3 17.31 16.73 17.31 16.73 17.31 1.24 17.31 1.24ZM 7.81 2.9C 7.81 2.9 13.44 2.9 13.44 2.9 13.44 2.9 13.44 4.14 13.44 4.14 13.44 4.14 7.81 4.14 7.81 4.14 7.81 4.14 7.81 2.9 7.81 2.9Z" fill="rgb(149,159,187)"/></svg>